        

Sleeping Beauty (2011) - English Movie - R5




IMDB: http://www.imdb.com/title/tt1588398/




General


Complete name : Sleeping Beauty 2011 R5 XVID AC3 - SPEEDY.avi
Format : AVI
Format/Info : Audio Video Interleave
Format profile : OpenDML
Format settings : rec
File size : 1.36 GiB
Duration : 1h 37mn
Overall bit rate : 2 001 Kbps





Video


ID : 0
Format : MPEG-4 Visual
Format profile : Advanced Simple@L5
Format settings, BVOP : 2
Format settings, QPel : No
Format settings, GMC : No warppoints
Format settings, Matrix : Default (H.263)
Codec ID : XVID
Codec ID/Hint : XviD
Duration : 1h 37mn
Bit rate : 1 612 Kbps
Width : 720 pixels
Height : 384 pixels
Display aspect ratio : 1.875
Frame rate : 25.000 fps
Color space : YUV
Chroma subsampling : 4:2:0
Bit depth : 8 bits
Scan type : Progressive
Compression mode : Lossy
Bits/(Pixel*Frame) : 0.233
Stream size : 1.10 GiB (81%)






Audio


ID : 1
Format : AC-3
Format/Info : Audio Coding 3
Mode extension : CM (complete main)
Codec ID : 2000
Duration : 1h 37mn
Bit rate mode : Constant
Bit rate : 384 Kbps
Channel(s) : 6 channels
Channel positions : Front: L C R, Side: L R, LFE
Sampling rate : 48.0 KHz
Bit depth : 16 bits
Compression mode : Lossy
Stream size : 268 MiB (19%)
Alignment : Aligned on interleaves
Interleave, duration : 64 ms (1.60 video frames)
Interleave, preload duration : 192 ms
AUDIO: ENGLISH
SUBS: NON






PLOT
Storyline

A haunting portrait of Lucy, a young university student drawn into a mysterious hidden

world of unspoken desires.


Genres: Drama


Director: Julia Leigh

Writer: Julia Leigh (screenplay)

Stars: Emily Browning, Rachael Blake and Ewen Leslie




SOURCE
Video : DVD9 R5
Audio : DVD9 R5


SCREEN TOUCH UP: Tweak(hue / sat / bright / cont / Sharpen

I CROPPED n resized n increase the gamma (relative brightness) of the video
Levels




IF YOU ENJOY THIS PLEAS REP ME ENJOY FOLKS


                      ScReeN SHoTs


[IMG]http://www.grinshare.com/img/LC8WDR.jpeg[/IMG]
[IMG]http://www.grinshare.com/img/KK6P5T.jpeg[/IMG]
[IMG]http://www.grinshare.com/img/WIK7I7.jpeg[/IMG]
[IMG]http://www.grinshare.com/img/6OA3KV.jpeg[/IMG]

CRedits:  To ORginal REleaser